<?xml version="1.0" encoding="UTF-8"?>
<!DOCTYPE svg PUBLIC "-//W3C//DTD SVG 1.1//EN" "http://www.w3.org/Graphics/SVG/1.1/DTD/svg11.dtd">
<!-- Creator: CorelDRAW 2018 -->
<svg xmlns="http://www.w3.org/2000/svg" xml:space="preserve" width="1024px" height="768px" version="1.1" style="shape-rendering:geometricPrecision; text-rendering:geometricPrecision; image-rendering:optimizeQuality; fill-rule:evenodd; clip-rule:evenodd"
viewBox="0 0 1024 768"
 xmlns:xlink="http://www.w3.org/1999/xlink">
 <defs>
  <style type="text/css">
   <![CDATA[
    .fil2 {fill:#00CCFF}
    .fil1 {fill:#333333;fill-rule:nonzero}
    .fil0 {fill:#4D4D4D;fill-rule:nonzero}
   ]]>
  </style>
 </defs>
 <g id="Layer_x0020_1">
  <metadata id="CorelCorpID_0Corel-Layer"/>
  <g id="_975219152">
   <path class="fil0" d="M28.052 333.444l0 14.725 48.379 0c2.792,0 4.856,0.621 6.206,1.877 1.35,1.242 2.017,2.856 2.017,4.826 0,2.002 -0.683,3.645 -2.048,4.902 -1.365,1.257 -3.413,1.894 -6.175,1.894l-48.379 0 0 14.724c0,2.312 -0.512,4.019 -1.52,5.135 -1.024,1.118 -2.374,1.692 -4.049,1.692 -1.723,0 -3.088,-0.589 -4.097,-1.753 -1.008,-1.164 -1.505,-2.855 -1.505,-5.074l0 -42.948c0,-2.343 0.512,-4.065 1.552,-5.213 1.039,-1.133 2.389,-1.707 4.05,-1.707 1.675,0 3.025,0.59 4.049,1.738 1.008,1.148 1.52,2.871 1.52,5.182zm-4.111 -28.472l19.1 0 0 -29.138 -19.1 0c-2.715,0 -4.763,-0.621 -6.129,-1.846 -1.366,-1.226 -2.048,-2.84 -2.048,-4.841 0,-2.017 0.667,-3.662 2.017,-4.919 1.35,-1.256 3.399,-1.893 6.16,-1.893l52.49 0c2.762,0 4.81,0.637 6.175,1.909 1.365,1.273 2.048,2.917 2.048,4.903 0,2.033 -0.683,3.662 -2.064,4.872 -1.381,1.21 -3.428,1.815 -6.159,1.815l-22.405 0 0 29.138 22.405 0c2.762,0 4.81,0.637 6.175,1.909 1.365,1.273 2.048,2.917 2.048,4.903 0,2.033 -0.683,3.662 -2.064,4.872 -1.381,1.211 -3.428,1.816 -6.159,1.816l-52.49 0c-2.73,0 -4.763,-0.605 -6.129,-1.8 -1.366,-1.195 -2.048,-2.824 -2.048,-4.888 0,-2.016 0.667,-3.661 2.017,-4.918 1.35,-1.257 3.413,-1.894 6.16,-1.894zm3.367 -101.053l0 30.41 16.385 0 0 -28.006c0,-2.064 0.465,-3.599 1.381,-4.608 0.915,-1.024 2.141,-1.521 3.645,-1.521 1.505,0 2.746,0.497 3.693,1.49 0.946,1.009 1.428,2.544 1.428,4.639l0 28.006 18.991 0 0 -31.45c0,-2.125 0.497,-3.724 1.475,-4.794 0.976,-1.087 2.296,-1.63 3.924,-1.63 1.568,0 2.855,0.543 3.833,1.63 0.978,1.07 1.474,2.669 1.474,4.794l0 36.679c0,2.933 -0.652,5.043 -1.956,6.33 -1.303,1.288 -3.413,1.94 -6.314,1.94l-50.115 0c-1.941,0 -3.523,-0.295 -4.748,-0.869 -1.226,-0.574 -2.126,-1.474 -2.685,-2.7 -0.559,-1.226 -0.838,-2.792 -0.838,-4.701l0 -35.639c0,-2.158 0.481,-3.756 1.428,-4.795 0.961,-1.039 2.218,-1.567 3.755,-1.567 1.582,0 2.855,0.528 3.816,1.567 0.947,1.039 1.428,2.637 1.428,4.795z"/>
   <path class="fil1" d="M154.206 201.795l0 57.431 87.616 0 0 -57.431c0,-8.164 1.865,-14.323 5.551,-18.428 3.686,-4.105 8.537,-6.158 14.557,-6.158 6.064,0 11.009,2.006 14.788,6.065 3.779,4.059 5.692,10.217 5.692,18.521l0 157.83c0,8.304 -1.913,14.462 -5.739,18.567 -3.825,4.106 -8.771,6.159 -14.741,6.159 -6.113,0 -11.012,-2.053 -14.65,-6.205 -3.64,-4.152 -5.458,-10.311 -5.458,-18.521l0 -67.369 -87.616 0 0 67.369c0,8.304 -1.913,14.462 -5.738,18.567 -3.827,4.106 -8.772,6.159 -14.743,6.159 -6.112,0 -11.01,-2.053 -14.65,-6.205 -3.638,-4.152 -5.458,-10.311 -5.458,-18.521l0 -157.83c0,-8.211 1.82,-14.323 5.412,-18.428 3.592,-4.105 8.491,-6.158 14.696,-6.158 6.065,0 11.01,2.006 14.789,6.065 3.779,4.059 5.692,10.263 5.692,18.521zm273.39 115.935l-73.013 0c0.093,8.491 1.819,15.955 5.132,22.44 3.313,6.484 7.744,11.337 13.249,14.602 5.506,3.312 11.617,4.945 18.242,4.945 4.479,0 8.537,-0.512 12.223,-1.586 3.732,-1.026 7.278,-2.659 10.731,-4.898 3.499,-2.24 6.671,-4.619 9.564,-7.185 2.939,-2.566 6.717,-6.018 11.383,-10.404 1.913,-1.633 4.619,-2.473 8.164,-2.473 3.827,0 6.951,1.073 9.331,3.173 2.333,2.052 3.546,5.039 3.546,8.864 0,3.36 -1.354,7.278 -3.966,11.804 -2.659,4.479 -6.625,8.818 -11.99,12.923 -5.318,4.152 -11.99,7.604 -20.061,10.31 -8.071,2.752 -17.355,4.106 -27.805,4.106 -23.98,0 -42.595,-6.858 -55.892,-20.528 -13.296,-13.669 -19.921,-32.191 -19.921,-55.611 0,-11.01 1.633,-21.275 4.899,-30.698 3.266,-9.424 8.071,-17.495 14.323,-24.26 6.298,-6.718 14.043,-11.897 23.233,-15.489 9.191,-3.593 19.408,-5.411 30.605,-5.411 14.603,0 27.106,3.078 37.51,9.237 10.45,6.158 18.241,14.089 23.466,23.886 5.179,9.751 7.792,19.688 7.792,29.812 0,9.377 -2.706,15.489 -8.071,18.288 -5.366,2.753 -12.924,4.153 -22.674,4.153zm-73.013 -21.274l67.648 0c-0.887,-12.737 -4.339,-22.255 -10.311,-28.599 -5.972,-6.299 -13.809,-9.471 -23.559,-9.471 -9.331,0 -16.936,3.22 -22.908,9.61 -5.972,6.439 -9.61,15.91 -10.87,28.46zm229.536 66.947c-9.051,6.999 -17.775,12.224 -26.173,15.723 -8.444,3.499 -17.915,5.225 -28.365,5.225 -9.564,0 -18.009,-1.913 -25.24,-5.692 -7.232,-3.779 -12.83,-8.864 -16.748,-15.35 -3.919,-6.484 -5.879,-13.481 -5.879,-21.04 0,-10.217 3.22,-18.895 9.704,-26.08 6.485,-7.23 15.396,-12.035 26.733,-14.508 2.332,-0.56 8.21,-1.773 17.589,-3.686 9.377,-1.912 17.448,-3.639 24.119,-5.271 6.672,-1.587 13.949,-3.5 21.787,-5.787 -0.466,-9.843 -2.426,-17.074 -5.925,-21.647 -3.546,-4.618 -10.777,-6.904 -21.834,-6.904 -9.47,0 -16.608,1.306 -21.367,3.965 -4.805,2.613 -8.911,6.579 -12.316,11.897 -3.407,5.272 -5.832,8.724 -7.232,10.451 -1.446,1.679 -4.479,2.519 -9.097,2.519 -4.199,0 -7.838,-1.353 -10.87,-4.059 -3.033,-2.659 -4.572,-6.111 -4.572,-10.31 0,-6.579 2.332,-12.97 6.951,-19.175 4.664,-6.205 11.896,-11.29 21.74,-15.302 9.845,-4.013 22.115,-6.018 36.81,-6.018 16.375,0 29.298,1.959 38.675,5.831 9.378,3.872 16.003,9.984 19.875,18.381 3.873,8.398 5.833,19.502 5.833,33.358 0,8.771 -0.048,16.189 -0.094,22.3 -0.047,6.112 -0.093,12.924 -0.187,20.388 0,6.998 1.167,14.323 3.499,21.927 2.333,7.558 3.452,12.456 3.452,14.65 0,3.825 -1.772,7.324 -5.364,10.45 -3.64,3.125 -7.698,4.712 -12.27,4.712 -3.826,0 -7.605,-1.773 -11.337,-5.365 -3.733,-3.592 -7.698,-8.771 -11.897,-15.583zm-2.473 -54.072c-5.459,2.007 -13.39,4.152 -23.84,6.346 -10.403,2.239 -17.635,3.919 -21.647,4.945 -4.013,1.073 -7.838,3.126 -11.477,6.159 -3.639,3.078 -5.458,7.324 -5.458,12.829 0,5.646 2.145,10.451 6.438,14.416 4.245,3.966 9.844,5.972 16.795,5.972 7.371,0 14.183,-1.633 20.388,-4.853 6.251,-3.265 10.824,-7.417 13.762,-12.549 3.36,-5.646 5.039,-14.976 5.039,-27.946l0 -5.319zm74.507 52.346l0 -161.795c0,-7.464 1.679,-13.109 4.991,-16.934 3.313,-3.827 7.791,-5.739 13.437,-5.739 5.597,0 10.169,1.912 13.622,5.691 3.453,3.78 5.179,9.425 5.179,16.982l0 161.795c0,7.558 -1.773,13.203 -5.272,16.982 -3.499,3.779 -8.024,5.692 -13.529,5.692 -5.459,0 -9.891,-1.96 -13.296,-5.879 -3.407,-3.918 -5.132,-9.517 -5.132,-16.795zm77.91 -125.685l4.106 0 0 -22.44c0,-6.018 0.14,-10.731 0.466,-14.136 0.327,-3.453 1.214,-6.392 2.66,-8.818 1.446,-2.566 3.545,-4.665 6.298,-6.252 2.706,-1.585 5.739,-2.378 9.144,-2.378 4.712,0 8.957,1.773 12.783,5.317 2.566,2.38 4.152,5.273 4.852,8.726 0.7,3.405 1.026,8.257 1.026,14.555l0 25.426 13.67 0c5.271,0 9.331,1.26 12.083,3.732 2.8,2.52 4.199,5.739 4.199,9.611 0,5.039 -2.006,8.537 -5.971,10.544 -3.966,2.006 -9.612,2.986 -17.029,2.986l-6.952 0 0 68.581c0,5.831 0.187,10.357 0.607,13.483 0.42,3.125 1.493,5.691 3.266,7.651 1.82,1.959 4.712,2.939 8.724,2.939 2.146,0 5.132,-0.374 8.865,-1.167 3.732,-0.746 6.671,-1.166 8.724,-1.166 3.032,0 5.738,1.214 8.164,3.639 2.426,2.426 3.592,5.412 3.592,8.957 0,6.02 -3.265,10.592 -9.797,13.764 -6.578,3.218 -16.002,4.805 -28.318,4.805 -11.664,0 -20.482,-1.96 -26.454,-5.879 -6.018,-3.918 -9.937,-9.33 -11.802,-16.282 -1.867,-6.904 -2.8,-16.142 -2.8,-27.712l0 -71.613 -4.899 0c-5.412,0 -9.516,-1.259 -12.316,-3.826 -2.846,-2.519 -4.245,-5.785 -4.245,-9.704 0,-3.872 1.493,-7.091 4.432,-9.611 2.985,-2.472 7.278,-3.732 12.922,-3.732zm133.43 -36.11l0 55.285c4.759,-5.459 9.377,-9.798 13.903,-12.97 4.478,-3.172 9.471,-5.598 14.929,-7.184 5.505,-1.586 11.384,-2.38 17.682,-2.38 9.471,0 17.868,2.007 25.24,6.019 7.324,4.012 13.062,9.843 17.261,17.494 2.66,4.433 4.432,9.424 5.366,14.976 0.886,5.506 1.352,11.85 1.352,19.035l0 71.52c0,7.465 -1.726,13.11 -5.132,16.935 -3.405,3.826 -7.978,5.739 -13.622,5.739 -12.318,0 -18.475,-7.558 -18.475,-22.674l0 -63.029c0,-11.944 -1.774,-21.134 -5.319,-27.526 -3.546,-6.438 -10.31,-9.657 -20.247,-9.657 -6.625,0 -12.643,1.913 -17.962,5.692 -5.319,3.778 -9.331,8.911 -11.943,15.489 -2.007,5.552 -3.033,15.442 -3.033,29.672l0 49.359c0,7.371 -1.679,12.97 -4.992,16.842 -3.312,3.872 -7.931,5.832 -13.81,5.832 -12.27,0 -18.427,-7.558 -18.427,-22.674l0 -161.795c0,-7.557 1.632,-13.202 4.851,-16.982 3.22,-3.779 7.745,-5.691 13.576,-5.691 5.879,0 10.498,1.912 13.81,5.739 3.313,3.825 4.992,9.47 4.992,16.934z"/>
   <path class="fil0" d="M645.074 429.842l-29.644 0 0 96.978c0,5.599 -1.25,9.735 -3.782,12.441 -2.498,2.706 -5.746,4.044 -9.713,4.044 -4.031,0 -7.342,-1.369 -9.872,-4.106 -2.53,-2.737 -3.81,-6.843 -3.81,-12.379l0 -96.978 -29.645 0c-4.655,0 -8.091,-1.026 -10.341,-3.048 -2.249,-2.053 -3.404,-4.759 -3.404,-8.118 0,-3.451 1.187,-6.189 3.53,-8.21 2.343,-2.022 5.747,-3.018 10.215,-3.018l86.466 0c4.717,0 8.184,1.027 10.496,3.111 2.28,2.083 3.436,4.789 3.436,8.117 0,3.359 -1.187,6.065 -3.499,8.118 -2.311,2.022 -5.778,3.048 -10.433,3.048zm82.062 99.497c-6.06,4.666 -11.902,8.149 -17.525,10.482 -5.653,2.332 -11.996,3.484 -18.992,3.484 -6.404,0 -12.058,-1.275 -16.9,-3.796 -4.842,-2.518 -8.59,-5.909 -11.213,-10.232 -2.625,-4.323 -3.937,-8.988 -3.937,-14.027 0,-6.811 2.155,-12.597 6.498,-17.386 4.342,-4.821 10.307,-8.025 17.899,-9.674 1.562,-0.373 5.497,-1.181 11.777,-2.457 6.278,-1.275 11.682,-2.425 16.148,-3.514 4.469,-1.058 9.341,-2.333 14.589,-3.857 -0.312,-6.563 -1.624,-11.383 -3.967,-14.432 -2.374,-3.078 -7.216,-4.603 -14.62,-4.603 -6.34,0 -11.121,0.871 -14.307,2.644 -3.216,1.742 -5.966,4.386 -8.245,7.931 -2.282,3.515 -3.905,5.816 -4.843,6.968 -0.968,1.119 -2.999,1.679 -6.091,1.679 -2.812,0 -5.248,-0.902 -7.279,-2.706 -2.03,-1.773 -3.061,-4.075 -3.061,-6.873 0,-4.387 1.562,-8.647 4.655,-12.784 3.124,-4.137 7.966,-7.526 14.557,-10.201 6.59,-2.675 14.806,-4.013 24.645,-4.013 10.966,0 19.619,1.307 25.897,3.888 6.279,2.582 10.715,6.657 13.307,12.254 2.594,5.599 3.905,13.001 3.905,22.238 0,5.848 -0.031,10.793 -0.062,14.868 -0.031,4.075 -0.063,8.615 -0.126,13.591 0,4.666 0.782,9.55 2.344,14.619 1.561,5.038 2.311,8.304 2.311,9.766 0,2.55 -1.187,4.884 -3.592,6.967 -2.438,2.084 -5.154,3.142 -8.215,3.142 -2.562,0 -5.092,-1.183 -7.591,-3.577 -2.5,-2.395 -5.155,-5.848 -7.966,-10.389zm-1.656 -36.047c-3.654,1.337 -8.964,2.767 -15.963,4.229 -6.966,1.494 -11.807,2.613 -14.494,3.297 -2.687,0.715 -5.248,2.084 -7.684,4.106 -2.437,2.053 -3.655,4.883 -3.655,8.553 0,3.763 1.436,6.967 4.311,9.61 2.843,2.644 6.591,3.982 11.245,3.982 4.936,0 9.497,-1.089 13.651,-3.235 4.186,-2.177 7.247,-4.945 9.216,-8.366 2.249,-3.764 3.373,-9.985 3.373,-18.631l0 -3.545zm49.886 34.897l0 -107.864c0,-4.977 1.125,-8.74 3.343,-11.29 2.218,-2.55 5.216,-3.826 8.998,-3.826 3.748,0 6.808,1.276 9.121,3.795 2.311,2.519 3.467,6.282 3.467,11.321l0 107.864c0,5.038 -1.188,8.802 -3.53,11.32 -2.342,2.521 -5.372,3.796 -9.058,3.796 -3.656,0 -6.624,-1.307 -8.904,-3.919 -2.28,-2.613 -3.437,-6.346 -3.437,-11.197zm113.02 3.732l-22.054 -36.017 -13.558 12.721 0 19.75c0,4.79 -1.28,8.491 -3.81,11.072 -2.531,2.583 -5.436,3.858 -8.747,3.858 -3.842,0 -6.873,-1.275 -9.059,-3.827 -2.219,-2.55 -3.311,-6.313 -3.311,-11.289l0 -106.029c0,-5.537 1.061,-9.735 3.218,-12.628 2.124,-2.892 5.185,-4.323 9.152,-4.323 3.842,0 6.904,1.307 9.153,3.919 2.28,2.613 3.404,6.47 3.404,11.57l0 60.276 28.083 -29.329c3.498,-3.669 6.154,-6.158 7.966,-7.496 1.844,-1.336 4.06,-1.99 6.685,-1.99 3.124,0 5.716,0.995 7.779,2.955 2.091,1.99 3.124,4.447 3.124,7.434 0,3.638 -3.406,8.491 -10.154,14.587l-13.276 12.098 25.615 40.091c1.906,2.987 3.25,5.257 4.061,6.812 0.844,1.555 1.25,3.017 1.25,4.416 0,3.95 -1.094,7.06 -3.249,9.331 -2.154,2.27 -5.029,3.422 -8.559,3.422 -3.061,0 -5.403,-0.809 -7.028,-2.458 -1.657,-1.648 -3.874,-4.603 -6.685,-8.926zm120.953 -21.088c0,6.843 -1.688,12.722 -5.03,17.604 -3.343,4.884 -8.309,8.585 -14.868,11.104 -6.561,2.519 -14.526,3.764 -23.93,3.764 -8.964,0 -16.649,-1.369 -23.053,-4.106 -6.404,-2.706 -11.121,-6.127 -14.182,-10.233 -3.03,-4.074 -4.561,-8.18 -4.561,-12.317 0,-2.737 0.968,-5.069 2.937,-6.997 1.936,-1.96 4.404,-2.924 7.404,-2.924 2.623,0 4.623,0.653 6.029,1.928 1.404,1.275 2.748,3.048 4.028,5.381 2.563,4.416 5.623,7.744 9.184,9.922 3.562,2.208 8.435,3.297 14.589,3.297 4.998,0 9.09,-1.12 12.277,-3.328 3.216,-2.209 4.809,-4.759 4.809,-7.62 0,-4.386 -1.655,-7.559 -4.966,-9.58 -3.343,-1.991 -8.81,-3.919 -16.431,-5.754 -8.59,-2.115 -15.587,-4.354 -20.991,-6.687 -5.374,-2.333 -9.685,-5.444 -12.934,-9.269 -3.217,-3.825 -4.841,-8.553 -4.841,-14.12 0,-5.008 1.498,-9.704 4.467,-14.152 2.998,-4.448 7.403,-7.963 13.244,-10.606 5.81,-2.644 12.839,-3.981 21.086,-3.981 6.466,0 12.276,0.654 17.399,1.99 5.155,1.338 9.465,3.142 12.902,5.381 3.468,2.271 6.091,4.759 7.872,7.496 1.812,2.737 2.717,5.381 2.717,8.025 0,2.829 -0.968,5.194 -2.905,6.997 -1.905,1.835 -4.654,2.738 -8.184,2.738 -2.561,0 -4.748,-0.716 -6.56,-2.178 -1.78,-1.462 -3.843,-3.638 -6.185,-6.562 -1.874,-2.426 -4.092,-4.386 -6.654,-5.848 -2.561,-1.462 -6.029,-2.177 -10.433,-2.177 -4.498,0 -8.248,0.964 -11.245,2.862 -2.969,1.928 -4.468,4.323 -4.468,7.184 0,2.613 1.094,4.759 3.28,6.407 2.218,1.68 5.155,3.08 8.872,4.168 3.717,1.088 8.84,2.426 15.369,4.013 7.746,1.865 14.089,4.136 18.992,6.749 4.905,2.613 8.622,5.692 11.152,9.269 2.531,3.545 3.812,7.588 3.812,12.16z"/>
   <path class="fil2" d="M313.969 636.078c6.442,0 11.663,5.222 11.663,11.664 0,6.442 -5.221,11.664 -11.663,11.664 -6.441,0 -11.662,-5.222 -11.662,-11.664 0,-6.442 5.221,-11.664 11.662,-11.664z"/>
   <path class="fil2" d="M287.167 616.95c8.374,0 15.164,6.789 15.164,15.165 0,8.375 -6.79,15.165 -15.164,15.165 -8.374,0 -15.163,-6.79 -15.163,-15.165 0,-8.376 6.789,-15.165 15.163,-15.165z"/>
   <path class="fil2" d="M256.556 592.691c9.86,0 17.853,7.993 17.853,17.855 0,9.86 -7.993,17.854 -17.853,17.854 -9.859,0 -17.852,-7.994 -17.852,-17.854 0,-9.862 7.993,-17.855 17.852,-17.855z"/>
   <path class="fil2" d="M228.308 561.104c10.596,0 19.184,8.59 19.184,19.186 0,10.595 -8.588,19.186 -19.184,19.186 -10.595,0 -19.183,-8.591 -19.183,-19.186 0,-10.596 8.588,-19.186 19.183,-19.186z"/>
   <path class="fil2" d="M199.878 520.286c12.604,0 22.822,10.219 22.822,22.825 0,12.606 -10.218,22.825 -22.822,22.825 -12.605,0 -22.824,-10.219 -22.824,-22.825 0,-12.606 10.219,-22.825 22.824,-22.825z"/>
   <path class="fil2" d="M180.194 466.345c14.616,0 26.464,11.849 26.464,26.466 0,14.616 -11.848,26.466 -26.464,26.466 -14.615,0 -26.463,-11.85 -26.463,-26.466 0,-14.617 11.848,-26.466 26.463,-26.466z"/>
   <path class="fil2" d="M172.904 401.467c16.627,0 30.105,13.48 30.105,30.109 0,16.629 -13.478,30.109 -30.105,30.109 -16.628,0 -30.107,-13.48 -30.107,-30.109 0,-16.629 13.479,-30.109 30.107,-30.109z"/>
   <path class="fil2" d="M301.312 585.301c5.939,2.495 8.731,9.332 6.237,15.271 -2.495,5.939 -9.331,8.732 -15.269,6.238 -5.94,-2.494 -8.732,-9.331 -6.237,-15.27 2.494,-5.94 9.331,-8.733 15.269,-6.239z"/>
   <path class="fil2" d="M284.007 557.288c7.721,3.243 11.351,12.132 8.109,19.853 -3.243,7.722 -12.132,11.353 -19.853,8.111 -7.721,-3.243 -11.352,-12.132 -8.109,-19.854 3.244,-7.722 12.131,-11.354 19.853,-8.11z"/>
   <path class="fil2" d="M265.177 523.068c9.091,3.818 13.366,14.283 9.547,23.375 -3.818,9.091 -14.283,13.366 -23.374,9.549 -9.089,-3.818 -13.364,-14.284 -9.546,-23.375 3.818,-9.091 14.283,-13.366 23.373,-9.549z"/>
   <path class="fil2" d="M251.365 483.007c9.768,4.103 14.361,15.348 10.258,25.117 -4.103,9.77 -15.348,14.363 -25.117,10.262 -9.768,-4.103 -14.362,-15.348 -10.259,-25.117 4.103,-9.769 15.348,-14.363 25.118,-10.262z"/>
   <path class="fil2" d="M240.956 434.365c11.621,4.88 17.086,18.259 12.204,29.881 -4.88,11.623 -18.259,17.088 -29.88,12.208 -11.621,-4.881 -17.085,-18.26 -12.205,-29.882 4.882,-11.622 18.26,-17.088 29.881,-12.207z"/>
   <path class="fil2" d="M313.758 604.854c4.428,0 8.018,3.59 8.018,8.019 0,4.428 -3.59,8.019 -8.018,8.019 -4.428,0 -8.017,-3.591 -8.017,-8.019 0,-4.429 3.589,-8.019 8.017,-8.019z"/>
   <path class="fil2" d="M314.506 542.302c4.641,4.467 4.782,11.85 0.315,16.491 -4.466,4.642 -11.85,4.785 -16.491,0.318 -4.642,-4.467 -4.783,-11.85 -0.317,-16.492 4.468,-4.641 11.851,-4.784 16.493,-0.317z"/>
   <path class="fil2" d="M308.457 509.934c6.034,5.807 6.217,15.407 0.41,21.442 -5.808,6.034 -15.408,6.219 -21.442,0.412 -6.034,-5.806 -6.218,-15.406 -0.411,-21.441 5.808,-6.034 15.407,-6.219 21.443,-0.413z"/>
   <path class="fil2" d="M303.22 471.228c7.104,6.837 7.322,18.14 0.484,25.245 -6.837,7.105 -18.14,7.322 -25.244,0.486 -7.104,-6.837 -7.321,-18.139 -0.484,-25.244 6.838,-7.106 18.14,-7.322 25.244,-0.487z"/>
   <path class="fil2" d="M319.07 565.026c4.132,1.595 6.186,6.237 4.591,10.368 -1.596,4.131 -6.238,6.187 -10.368,4.591 -4.131,-1.595 -6.186,-6.237 -4.59,-10.368 1.595,-4.131 6.237,-6.187 10.367,-4.591z"/>
   <path class="fil2" d="M352.252 528.227c3.082,5.656 0.996,12.74 -4.66,15.823 -5.656,3.083 -12.74,0.998 -15.823,-4.658 -3.083,-5.655 -0.997,-12.74 4.659,-15.822 5.657,-3.084 12.741,-0.998 15.824,4.657z"/>
   <path class="fil2" d="M356.219 495.54c4.008,7.352 1.296,16.564 -6.058,20.572 -7.354,4.008 -16.565,1.296 -20.573,-6.056 -4.008,-7.354 -1.295,-16.564 6.058,-20.573 7.354,-4.008 16.565,-1.297 20.573,6.057z"/>
   <path class="fil2" d="M362.869 457.052c4.718,8.657 1.525,19.501 -7.133,24.22 -8.657,4.72 -19.502,1.527 -24.22,-7.13 -4.719,-8.657 -1.526,-19.501 7.132,-24.22 8.658,-4.72 19.502,-1.528 24.221,7.13z"/>
   <path class="fil2" d="M377.084 417.132c5.071,9.303 1.639,20.955 -7.665,26.026 -9.302,5.071 -20.956,1.641 -26.026,-7.662 -5.071,-9.302 -1.64,-20.955 7.664,-26.026 9.304,-5.072 20.956,-1.641 26.027,7.662z"/>
   <path class="fil2" d="M390.777 492.813c0.652,6.407 -4.014,12.131 -10.423,12.784 -6.409,0.652 -12.132,-4.014 -12.785,-10.422 -0.653,-6.408 4.014,-12.132 10.423,-12.785 6.408,-0.652 12.133,4.015 12.785,10.423z"/>
   <path class="fil2" d="M407.092 464.211c0.848,8.331 -5.22,15.773 -13.551,16.621 -8.333,0.848 -15.774,-5.218 -16.622,-13.549 -0.849,-8.332 5.218,-15.774 13.551,-16.622 8.332,-0.849 15.774,5.219 16.622,13.55z"/>
   <path class="fil2" d="M428.126 431.3c0.999,9.809 -6.145,18.57 -15.955,19.569 -9.809,0.999 -18.572,-6.143 -19.57,-15.952 -0.999,-9.809 6.145,-18.571 15.954,-19.57 9.81,-0.999 18.572,6.144 19.571,15.953z"/>
   <path class="fil2" d="M379.566 513.098c2.119,3.888 0.684,8.758 -3.203,10.878 -3.889,2.119 -8.759,0.686 -10.879,-3.203 -2.119,-3.888 -0.684,-8.757 3.204,-10.877 3.888,-2.119 8.759,-0.685 10.878,3.202z"/>
   <path class="fil2" d="M434.846 483.817c-1.7,6.212 -8.116,9.871 -14.329,8.17 -6.213,-1.701 -9.871,-8.116 -8.171,-14.328 1.7,-6.213 8.115,-9.871 14.329,-8.171 6.213,1.7 9.872,8.116 8.171,14.329z"/>
   <path class="fil2" d="M460.371 463.014c-2.21,8.078 -10.551,12.834 -18.629,10.623 -8.079,-2.211 -12.836,-10.552 -10.625,-18.629 2.21,-8.078 10.552,-12.834 18.629,-10.623 8.079,2.211 12.835,10.552 10.625,18.629z"/>
   <path class="fil2" d="M491.85 439.893c-2.602,9.509 -12.423,15.109 -21.933,12.506 -9.511,-2.603 -15.112,-12.422 -12.51,-21.933 2.603,-9.51 12.423,-15.109 21.934,-12.506 9.511,2.602 15.112,12.423 12.509,21.933z"/>
   <path class="fil2" d="M417.079 498.701c0.577,4.39 -2.516,8.416 -6.907,8.993 -4.391,0.576 -8.417,-2.516 -8.994,-6.907 -0.576,-4.39 2.517,-8.417 6.907,-8.993 4.392,-0.576 8.418,2.517 8.994,6.907z"/>
   <path class="fil2" d="M298.528 415.793c11.621,4.881 17.085,18.259 12.203,29.881 -4.88,11.622 -18.259,17.088 -29.879,12.207 -11.621,-4.88 -17.086,-18.259 -12.205,-29.881 4.881,-11.622 18.26,-17.088 29.881,-12.207z"/>
   <path class="fil2" d="M490.991 478.045c-3.343,5.506 -10.517,7.259 -16.023,3.915 -5.507,-3.343 -7.26,-10.516 -3.917,-16.023 3.343,-5.506 10.518,-7.258 16.023,-3.915 5.507,3.343 7.26,10.518 3.917,16.023z"/>
   <path class="fil2" d="M521.252 465.064c-4.347,7.157 -13.674,9.436 -20.833,5.089 -7.158,-4.346 -9.438,-13.673 -5.092,-20.831 4.347,-7.159 13.674,-9.437 20.832,-5.091 7.16,4.347 9.44,13.675 5.093,20.833z"/>
   <path class="fil2" d="M469.816 487.47c-0.653,4.38 -4.734,7.4 -9.114,6.747 -4.38,-0.654 -7.4,-4.734 -6.747,-9.113 0.652,-4.38 4.733,-7.4 9.114,-6.747 4.379,0.653 7.4,4.734 6.747,9.113z"/>
   <path class="fil2" d="M531.574 497.439c-5.103,3.932 -12.426,2.982 -16.358,-2.12 -3.932,-5.104 -2.984,-12.427 2.119,-16.359 5.102,-3.931 12.426,-2.982 16.358,2.121 3.932,5.102 2.983,12.427 -2.119,16.358z"/>
   <path class="fil2" d="M508.425 498.602c-2.188,3.85 -7.082,5.198 -10.933,3.01 -3.85,-2.189 -5.199,-7.083 -3.011,-10.933 2.188,-3.85 7.082,-5.198 10.932,-3.01 3.851,2.188 5.2,7.083 3.012,10.933z"/>
   <path class="fil2" d="M573.822 172.642c3.684,5.283 10.955,6.58 16.238,2.895 5.285,-3.685 6.581,-10.955 2.897,-16.239 -3.685,-5.283 -10.955,-6.579 -16.239,-2.894 -5.283,3.685 -6.581,10.954 -2.896,16.238z"/>
   <path class="fil2" d="M542.802 161.599c4.79,6.869 14.242,8.554 21.112,3.763 6.869,-4.79 8.556,-14.243 3.766,-21.112 -4.791,-6.869 -14.243,-8.554 -21.113,-3.764 -6.869,4.791 -8.556,14.244 -3.765,21.113z"/>
   <path class="fil2" d="M505.393 150.366c5.64,8.086 16.769,10.071 24.857,4.431 8.088,-5.64 10.074,-16.769 4.433,-24.857 -5.639,-8.087 -16.768,-10.071 -24.856,-4.431 -8.088,5.64 -10.073,16.77 -4.434,24.857z"/>
   <path class="fil2" d="M463.327 145.263c6.06,8.69 18.019,10.822 26.709,4.761 8.692,-6.06 10.825,-18.019 4.764,-26.71 -6.06,-8.69 -18.019,-10.822 -26.709,-4.761 -8.692,6.06 -10.824,18.019 -4.764,26.71z"/>
   <path class="fil2" d="M413.583 145.29c7.21,10.339 21.436,12.875 31.776,5.664 10.34,-7.21 12.878,-21.437 5.669,-31.776 -7.21,-10.339 -21.438,-12.875 -31.778,-5.665 -10.339,7.211 -12.877,21.438 -5.667,31.777z"/>
   <path class="fil2" d="M358.079 159.999c8.36,11.988 24.856,14.929 36.845,6.569 11.99,-8.362 14.932,-24.858 6.573,-36.846 -8.36,-11.988 -24.857,-14.929 -36.847,-6.568 -11.989,8.361 -14.931,24.857 -6.571,36.845z"/>
   <path class="fil2" d="M300.692 191.128c9.51,13.638 28.278,16.984 41.917,7.472 13.64,-9.511 16.988,-28.278 7.477,-41.917 -9.511,-13.638 -28.278,-16.984 -41.918,-7.472 -13.64,9.511 -16.987,28.278 -7.476,41.917z"/>
   <path class="fil2" d="M511.257 189.05c5.668,3.06 12.744,0.944 15.804,-4.725 3.059,-5.668 0.944,-12.744 -4.724,-15.804 -5.668,-3.059 -12.743,-0.943 -15.803,4.725 -3.06,5.669 -0.946,12.745 4.723,15.804z"/>
   <path class="fil2" d="M478.219 191.693c7.37,3.978 16.569,1.227 20.548,-6.143 3.977,-7.369 1.228,-16.57 -6.141,-20.547 -7.37,-3.978 -16.569,-1.228 -20.547,6.143 -3.978,7.37 -1.229,16.569 6.14,20.547z"/>
   <path class="fil2" d="M439.76 198.502c8.676,4.683 19.507,1.444 24.191,-7.232 4.683,-8.678 1.446,-19.509 -7.23,-24.192 -8.677,-4.684 -19.508,-1.445 -24.192,7.232 -4.683,8.678 -1.446,19.508 7.231,24.192z"/>
   <path class="fil2" d="M399.718 217.163c9.324,5.031 20.962,1.552 25.995,-7.772 5.033,-9.325 1.554,-20.963 -7.769,-25.995 -9.324,-5.033 -20.962,-1.554 -25.994,7.771 -5.033,9.324 -1.555,20.963 7.768,25.996z"/>
   <path class="fil2" d="M549.646 178.073c1.195,4.265 -1.294,8.689 -5.558,9.884 -4.264,1.195 -8.689,-1.294 -9.884,-5.558 -1.195,-4.264 1.294,-8.689 5.559,-9.884 4.265,-1.195 8.69,1.294 9.883,5.558z"/>
   <path class="fil2" d="M489.811 227.969c6.414,0.6 12.1,-4.113 12.7,-10.527 0.6,-6.413 -4.112,-12.099 -10.525,-12.7 -6.413,-0.6 -12.099,4.112 -12.699,10.526 -0.6,6.414 4.111,12.101 10.524,12.701z"/>
   <path class="fil2" d="M461.047 243.086c8.338,0.781 15.731,-5.347 16.511,-13.686 0.78,-8.338 -5.347,-15.731 -13.685,-16.511 -8.337,-0.781 -15.729,5.346 -16.51,13.685 -0.781,8.339 5.346,15.732 13.684,16.512z"/>
   <path class="fil2" d="M520.662 204.5c2.766,3.458 2.205,8.504 -1.253,11.271 -3.458,2.766 -8.504,2.205 -11.27,-1.252 -2.767,-3.459 -2.205,-8.504 1.253,-11.271 3.458,-2.766 8.504,-2.205 11.27,1.252z"/>
  </g>
 </g>
</svg>
